<svg width="155" height="76" viewBox="0 0 155 76" fill="none" xmlns="http://www.w3.org/2000/svg">
<path d="M21.2351 17.5392C24.1595 23.6262 27.1984 29.3168 30.4956 35.372C31.7848 32.8486 36.9049 23.5283 40.0632 17.5392H40.4824C41.4572 25.8241 42.0932 32.8829 43.124 40.3014C42.1257 40.086 41.0932 40.086 40.0949 40.3014C39.644 34.508 39.1932 29.1381 38.5157 23.6042H38.4524C35.528 29.0108 32.5549 34.3196 30.0107 40.1399H29.7109C27.1984 34.7675 24.2326 29.2042 21.4252 23.6042H21.3619C20.7477 28.9448 19.8461 36.6448 19.8168 40.3014C19.4479 40.2011 19.0682 40.1469 18.6861 40.1399C18.3048 40.1468 17.9258 40.2011 17.5577 40.3014C18.6861 33.1521 19.9752 24.4119 20.6844 17.5392H21.2303" fill="#0047BA"/>
<path d="M51.0394 26.343C51.0394 23.5577 50.9126 20.7455 50.7957 17.9601C51.8403 18.1802 52.9191 18.1802 53.9637 17.9601C53.8321 20.7455 53.7054 23.5577 53.7054 26.343V31.9112C53.7054 34.6916 53.8321 37.5063 53.9637 40.2892C52.9187 40.0724 51.8407 40.0724 50.7957 40.2892C50.9248 37.5063 51.0394 34.6916 51.0394 31.9112V26.343Z" fill="#0047BA"/>
<path d="M81.3626 40.7101C76.4643 34.9192 70.596 28.7024 65.0909 22.8161C65.0592 24.0129 64.991 25.9563 64.991 29.3853C64.991 32.1682 65.1202 38.9968 65.2834 40.2892C64.9151 40.1863 64.535 40.1321 64.1527 40.1276C63.7507 40.1367 63.351 40.1908 62.961 40.2892C63.2193 38.7717 63.6409 30.4843 63.6409 26.2133C63.6409 22.1357 63.6409 18.9979 63.541 17.5392H64.0576C69.3093 23.2664 76.4277 31.0643 80.3634 35.049C80.3634 29.2531 80.3634 22.9483 80.1027 17.9601C80.4588 18.0621 80.8266 18.1172 81.1969 18.1241C81.5472 18.1179 81.895 18.0627 82.2302 17.9601C82.0401 19.8717 81.7135 26.2818 81.7135 28.8004C81.7135 32.1021 81.7818 39.2538 81.8134 40.7101H81.3626" fill="#0047BA"/>
<path d="M101.748 18.7336C96.7204 18.7336 92.8578 21.9399 92.8578 29.1259C92.8578 36.3119 96.7204 39.5133 101.748 39.5133C106.775 39.5133 110.672 36.3094 110.672 29.1259C110.672 21.9423 106.817 18.7336 101.748 18.7336ZM101.748 17.5392C108.869 17.5392 113.83 21.7808 113.83 29.1259C113.83 36.471 108.878 40.7101 101.748 40.7101C94.6173 40.7101 89.7043 36.4685 89.7043 29.1259C89.7043 21.7832 94.6807 17.5392 101.748 17.5392Z" fill="#0047BA"/>
<path d="M124.214 28.1885C124.928 28.316 125.652 28.3693 126.376 28.3476C129.015 28.3476 132.529 27.2486 132.529 23.3962C132.529 20.0014 129.724 19.1594 127.534 19.1594C126.49 19.1574 125.447 19.2114 124.409 19.321C124.309 21.6829 124.214 24.0154 124.214 26.343V28.1885V28.1885ZM121.57 26.343C121.57 23.5577 121.444 20.7455 121.327 17.9601C122.545 18.058 123.764 18.1241 124.999 18.1241C126.235 18.1241 127.448 17.9601 128.674 17.9601C132.31 17.9601 135.373 19.2255 135.373 23.0755C135.373 27.2486 131.216 28.9325 128.767 29.2531C130.348 31.2283 135.727 38.1892 137.598 40.2892C136.958 40.1881 136.311 40.1341 135.663 40.1276C135.038 40.1339 134.414 40.1879 133.797 40.2892C132.505 38.3164 128.221 32.3591 125.447 29.5469H124.229V31.9112C124.229 34.6916 124.361 37.5063 124.487 40.2892C123.446 40.0738 122.372 40.0738 121.331 40.2892C121.458 37.5063 121.575 34.6916 121.575 31.9112L121.57 26.343Z" fill="#0047BA"/>
<path d="M21.2351 17.5392C24.1595 23.6262 27.1984 29.3168 30.4956 35.372C31.7848 32.8486 36.9049 23.5283 40.0632 17.5392H40.4824C41.4572 25.8241 42.0932 32.8829 43.124 40.3014C42.1257 40.086 41.0932 40.086 40.0949 40.3014C39.644 34.508 39.1932 29.1381 38.5157 23.6042H38.4524C35.528 29.0108 32.5549 34.3196 30.0107 40.1399H29.7109C27.1984 34.7675 24.2326 29.2042 21.4252 23.6042H21.3619C20.7477 28.9448 19.8461 36.6448 19.8168 40.3014C19.4479 40.2011 19.0682 40.1469 18.6861 40.1399C18.3048 40.1468 17.9258 40.2011 17.5577 40.3014C18.6861 33.1521 19.9752 24.4119 20.6844 17.5392H21.2303" fill="#0047BA"/>
<path d="M51.0394 26.343C51.0394 23.5577 50.9126 20.7455 50.7957 17.9601C51.8403 18.1802 52.9191 18.1802 53.9637 17.9601C53.8321 20.7455 53.7054 23.5577 53.7054 26.343V31.9112C53.7054 34.6916 53.8321 37.5063 53.9637 40.2892C52.9187 40.0724 51.8407 40.0724 50.7957 40.2892C50.9248 37.5063 51.0394 34.6916 51.0394 31.9112V26.343Z" fill="#0047BA"/>
<path d="M81.3626 40.7101C76.4643 34.9192 70.596 28.7024 65.0909 22.8161C65.0592 24.0129 64.991 25.9563 64.991 29.3853C64.991 32.1682 65.1202 38.9968 65.2834 40.2892C64.9151 40.1863 64.535 40.1321 64.1527 40.1276C63.7507 40.1367 63.351 40.1908 62.961 40.2892C63.2193 38.7717 63.6409 30.4843 63.6409 26.2133C63.6409 22.1357 63.6409 18.9979 63.541 17.5392H64.0576C69.3093 23.2664 76.4277 31.0643 80.3634 35.049C80.3634 29.2531 80.3634 22.9483 80.1027 17.9601C80.4588 18.0621 80.8266 18.1172 81.1969 18.1241C81.5472 18.1179 81.895 18.0627 82.2302 17.9601C82.0401 19.8717 81.7135 26.2818 81.7135 28.8004C81.7135 32.1021 81.7818 39.2538 81.8134 40.7101H81.3626" fill="#0047BA"/>
<path d="M101.748 18.7336C96.7204 18.7336 92.8578 21.9399 92.8578 29.1259C92.8578 36.3119 96.7204 39.5133 101.748 39.5133C106.775 39.5133 110.672 36.3094 110.672 29.1259C110.672 21.9423 106.817 18.7336 101.748 18.7336ZM101.748 17.5392C108.869 17.5392 113.83 21.7808 113.83 29.1259C113.83 36.471 108.878 40.7101 101.748 40.7101C94.6173 40.7101 89.7043 36.4685 89.7043 29.1259C89.7043 21.7832 94.6807 17.5392 101.748 17.5392Z" fill="#0047BA"/>
<path d="M124.214 28.1885C124.928 28.316 125.652 28.3693 126.376 28.3476C129.015 28.3476 132.529 27.2486 132.529 23.3962C132.529 20.0014 129.724 19.1594 127.534 19.1594C126.49 19.1574 125.447 19.2114 124.409 19.321C124.309 21.6829 124.214 24.0154 124.214 26.343V28.1885V28.1885ZM121.57 26.343C121.57 23.5577 121.444 20.7455 121.327 17.9601C122.545 18.058 123.764 18.1241 124.999 18.1241C126.235 18.1241 127.448 17.9601 128.674 17.9601C132.31 17.9601 135.373 19.2255 135.373 23.0755C135.373 27.2486 131.216 28.9325 128.767 29.2531C130.348 31.2283 135.727 38.1892 137.598 40.2892C136.958 40.1881 136.311 40.1341 135.663 40.1276C135.038 40.1339 134.414 40.1879 133.797 40.2892C132.505 38.3164 128.221 32.3591 125.447 29.5469H124.229V31.9112C124.229 34.6916 124.361 37.5063 124.487 40.2892C123.446 40.0738 122.372 40.0738 121.331 40.2892C121.458 37.5063 121.575 34.6916 121.575 31.9112L121.57 26.343Z" fill="#0047BA"/>
<path d="M58.0261 50.6643C58.0489 50.1161 58.0725 49.558 58.0968 48.9902V48.907L58.0164 48.9217L57.6947 48.9657C57.4956 48.9902 57.2943 48.9902 57.0952 48.9657L56.776 48.9217L56.6931 48.907V48.9902C56.7175 49.558 56.741 50.1161 56.7638 50.6643C56.7857 51.215 56.7955 51.778 56.7955 52.3336V52.7178L55.5185 52.7448C55.0993 52.7448 54.6485 52.7448 54.1757 52.7448C53.703 52.7448 53.2497 52.7448 52.833 52.7448L51.5535 52.7178V52.3336C51.5535 51.7706 51.5657 51.2101 51.5852 50.6643C51.6047 50.1185 51.6315 49.558 51.6559 48.9902V48.907L51.573 48.9217L51.2538 48.9657C51.0547 48.9902 50.8534 48.9902 50.6543 48.9657L50.3351 48.9217L50.2522 48.907V48.9902C50.2766 49.558 50.3001 50.1161 50.3229 50.6643C50.3424 51.2175 50.3545 51.778 50.3545 52.3336V54.5559C50.3545 55.1115 50.3424 55.6745 50.3229 56.2325C50.3034 56.7906 50.2766 57.3266 50.2522 57.8601V57.936H50.3302C50.7454 57.9017 51.1627 57.9017 51.5779 57.936H51.6559V57.8601C51.6315 57.3266 51.608 56.784 51.5852 56.2325C51.5657 55.6818 51.5535 55.1189 51.5535 54.5559V53.4594C51.9922 53.4594 52.4187 53.4448 52.8305 53.4423C53.6956 53.4423 54.6534 53.4423 55.5112 53.4423C55.923 53.4423 56.3495 53.4423 56.7882 53.4594V54.5559C56.7882 55.1115 56.7882 55.6769 56.7565 56.2325C56.7248 56.7881 56.7102 57.3266 56.6858 57.8601V57.936H56.7638C57.179 57.9017 57.5963 57.9017 58.0115 57.936H58.0895V57.8601C58.0651 57.3266 58.0416 56.784 58.0188 56.2325C57.9993 55.6818 57.9872 55.1189 57.9872 54.5559V52.3336C57.9945 51.7633 58.0067 51.2028 58.0261 50.6643Z" fill="#5B6670"/>
<path d="M69.9673 49.9766C69.521 49.5653 68.9939 49.2526 68.4198 49.0587C67.1392 48.641 65.7598 48.641 64.4792 49.0587C63.905 49.2538 63.3772 49.5664 62.9293 49.9766C62.4926 50.3878 62.1493 50.8886 61.9228 51.4451C61.4452 52.7232 61.4452 54.132 61.9228 55.4101C62.1444 55.9733 62.4892 56.4793 62.9317 56.8907C63.3741 57.3021 63.903 57.6083 64.4792 57.7867C65.7638 58.1783 67.1352 58.1783 68.4198 57.7867C68.9955 57.6073 69.5239 57.3008 69.9663 56.8895C70.4086 56.4783 70.7537 55.9728 70.9762 55.4101C71.4539 54.132 71.4539 52.7232 70.9762 51.4451C70.7479 50.889 70.4039 50.3883 69.9673 49.9766ZM69.938 53.4374C69.9504 54.0582 69.8606 54.6768 69.6724 55.2682C69.5219 55.7385 69.2726 56.1709 68.9413 56.536C68.633 56.8622 68.2546 57.1133 67.8349 57.2703C67.3918 57.4345 66.923 57.5174 66.4507 57.515C65.9825 57.5169 65.5177 57.4339 65.0787 57.2703C64.6588 57.1138 64.2803 56.8626 63.9723 56.536C63.641 56.1709 63.3917 55.7385 63.2412 55.2682C62.8851 54.0705 62.8851 52.7945 63.2412 51.5969C63.3917 51.1265 63.641 50.6942 63.9723 50.329C64.2803 50.0024 64.6588 49.7512 65.0787 49.5948C65.9693 49.2718 66.9443 49.2718 67.8349 49.5948C68.2548 49.7512 68.6334 50.0024 68.9413 50.329C69.2732 50.6938 69.5226 51.1262 69.6724 51.5969C69.8615 52.1914 69.9513 52.8134 69.938 53.4374V53.4374Z" fill="#5B6670"/>
<path d="M80.1319 49.3941C80.1376 49.2599 80.1589 49.1268 80.1953 48.9976L80.2172 48.9094H80.127C79.5617 48.9266 79.0085 48.9437 78.4675 48.9559C77.4098 48.9804 76.2133 48.9804 75.1532 48.9559C74.6122 48.9559 74.059 48.9266 73.4936 48.9094H73.4059L73.4254 48.9976C73.4608 49.1228 73.4821 49.2517 73.4887 49.3818C73.485 49.5152 73.4646 49.6476 73.4278 49.7759L73.3986 49.8762L73.5009 49.8615C73.6788 49.8371 73.8835 49.815 74.1077 49.7979L74.8144 49.7514C75.0581 49.7514 75.3018 49.7318 75.5455 49.7269H76.1791C76.2035 50.5934 76.2157 51.472 76.2157 52.3336V54.5559C76.2157 55.1189 76.2157 55.6818 76.184 56.2325C76.1523 56.7832 76.1377 57.3266 76.1133 57.8601V57.936H76.1913C76.6065 57.9017 77.0238 57.9017 77.4391 57.936H77.517V57.8601C77.4927 57.3266 77.4691 56.784 77.4464 56.2325C77.4269 55.6892 77.4147 55.1262 77.4147 54.5559V52.3336C77.4147 51.4696 77.4269 50.5934 77.4512 49.7269H78.0873C78.331 49.7269 78.5747 49.7392 78.8184 49.7514L79.5251 49.7979C79.7493 49.815 79.954 49.8371 80.1319 49.8615L80.2343 49.8762L80.205 49.7759C80.1648 49.6522 80.1402 49.5239 80.1319 49.3941V49.3941Z" fill="#5B6670"/>
<path d="M88.1691 57.1381L88.2008 57.0304L88.0911 57.0525C87.8538 57.0999 87.6136 57.1318 87.3722 57.1479C87.0993 57.1699 86.7995 57.1871 86.4876 57.1993C86.1756 57.2115 85.8491 57.2189 85.5323 57.2189H84.6891C84.6891 57.0549 84.6745 56.8297 84.672 56.5629C84.672 56.2448 84.672 55.8287 84.672 55.3392V54.0615C84.672 53.9245 84.672 53.8168 84.672 53.7213C84.672 53.6259 84.672 53.5941 84.672 53.5353H85.235H86.066C86.3633 53.5353 86.6606 53.5524 86.9506 53.5696C87.2406 53.5867 87.5111 53.6087 87.7231 53.6332H87.8157L87.7987 53.5427C87.7737 53.4194 87.7607 53.294 87.7597 53.1682C87.7602 53.0383 87.7733 52.9088 87.7987 52.7815L87.8157 52.6909H87.7256C87.5379 52.708 87.3381 52.7227 87.1285 52.735L86.4437 52.7741C86.2 52.7864 85.9198 52.7986 85.62 52.8059C85.3203 52.8133 85.0327 52.8182 84.6745 52.8182C84.6745 52.6591 84.6745 52.4413 84.6745 52.1622C84.6745 51.8441 84.6745 51.5185 84.6745 51.1832C84.6745 50.8479 84.6745 50.5787 84.694 50.3364C84.7135 50.0941 84.7159 49.864 84.7256 49.6021C85.118 49.6021 85.4567 49.6021 85.737 49.6217C86.0172 49.6413 86.3121 49.6486 86.5656 49.6657L87.2845 49.7171L88.0375 49.7685H88.1252L88.1082 49.6804C88.0839 49.5571 88.0717 49.4317 88.0716 49.3059C88.0719 49.1802 88.0842 49.0549 88.1082 48.9315L88.1252 48.8483H88.0399C87.6525 48.8654 87.2723 48.8825 86.8946 48.8948C86.1635 48.9192 85.3519 48.9192 84.6038 48.8948C84.2212 48.8948 83.8386 48.8654 83.4535 48.8483H83.3804V48.9217C83.4048 49.4724 83.4292 50.0255 83.4511 50.5762C83.473 51.1269 83.4828 51.6948 83.4828 52.2528V54.4752C83.4828 55.0332 83.4828 55.5937 83.4511 56.1444C83.4194 56.6951 83.4048 57.2409 83.3804 57.7916V57.865H83.4535C83.841 57.8479 84.2334 57.8381 84.6209 57.8381H86.9555C87.3381 57.8381 87.7256 57.8381 88.1033 57.865H88.1983L88.1715 57.772C88.1441 57.6691 88.1318 57.5628 88.135 57.4563C88.135 57.3976 88.135 57.3315 88.135 57.2605C88.1432 57.2189 88.1546 57.178 88.1691 57.1381Z" fill="#5B6670"/>
<path d="M96.5328 57.5175C96.5378 57.3922 96.5582 57.2681 96.5937 57.1479L96.6302 57.028L96.5303 57.0427C95.9356 57.1247 95.3368 57.1737 94.7367 57.1895C94.1908 57.2017 93.6254 57.2091 93.0552 57.2091C93.0552 56.5972 93.0381 55.907 93.0308 55.1385C93.0235 54.3699 93.0186 53.4252 93.0186 52.3164C93.0186 51.7535 93.0186 51.193 93.0503 50.6472C93.082 50.1014 93.0942 49.5409 93.121 48.9731V48.8899L93.0406 48.9046L92.7213 48.9486C92.5214 48.9731 92.3193 48.9731 92.1194 48.9486L91.8001 48.9046L91.7197 48.8899V48.9731C91.7473 49.5409 91.7709 50.099 91.7904 50.6472C91.8123 51.1955 91.8245 51.7559 91.8245 52.3164V54.5388C91.8245 55.0993 91.8123 55.6622 91.7904 56.2154C91.7685 56.7685 91.7465 57.3094 91.7197 57.843V57.9164H91.7928C92.1974 57.8993 92.597 57.8895 92.9796 57.8895H95.3533C95.7481 57.8895 96.1453 57.8895 96.5328 57.9164H96.6302L96.601 57.8234C96.5643 57.7251 96.5413 57.6221 96.5328 57.5175Z" fill="#5B6670"/>
<path d="M104.565 53.9783C104.36 53.6886 104.097 53.4452 103.793 53.2636C103.484 53.0765 103.157 52.9207 102.818 52.7986C102.487 52.6821 102.165 52.5405 101.855 52.3752C101.578 52.2324 101.33 52.039 101.124 51.8049C100.921 51.5457 100.82 51.221 100.839 50.892C100.837 50.6798 100.877 50.4693 100.956 50.2727C101.029 50.087 101.142 49.9198 101.287 49.7832C101.433 49.6454 101.604 49.5381 101.792 49.4675C101.996 49.3913 102.212 49.3531 102.43 49.3549C102.632 49.3492 102.833 49.3893 103.018 49.4724C103.175 49.5448 103.319 49.6433 103.444 49.7636C103.558 49.8721 103.654 49.9986 103.727 50.1381C103.792 50.2632 103.849 50.3924 103.897 50.5248L103.914 50.5689H104.158L104.17 50.515C104.221 50.2703 104.273 50.0622 104.321 49.9032C104.371 49.7463 104.434 49.594 104.509 49.4479L104.536 49.3989L104.492 49.3647C104.238 49.1573 103.948 48.998 103.637 48.8948C103.284 48.7865 102.916 48.7353 102.547 48.743C102.147 48.7374 101.748 48.7995 101.368 48.9266C101.036 49.0389 100.729 49.2143 100.464 49.443C100.215 49.6611 100.018 49.932 99.8861 50.236C99.7514 50.5573 99.6842 50.9031 99.6887 51.2517C99.6669 51.6908 99.7764 52.1264 100.003 52.5025C100.205 52.8073 100.467 53.0672 100.773 53.2661C101.08 53.4629 101.407 53.627 101.748 53.7556C102.081 53.876 102.407 54.0166 102.723 54.1766C103 54.3181 103.248 54.5107 103.454 54.7444C103.656 54.9972 103.759 55.3162 103.741 55.6402C103.742 55.8818 103.699 56.1214 103.615 56.3476C103.538 56.5597 103.418 56.7537 103.264 56.9178C103.106 57.0833 102.916 57.2148 102.706 57.3046C102.474 57.4005 102.225 57.4488 101.975 57.4465C101.509 57.4545 101.055 57.3045 100.685 57.0206C100.529 56.902 100.39 56.761 100.274 56.6021C100.168 56.4595 100.078 56.3061 100.005 56.1444L99.986 56.1028H99.7277V56.164C99.7033 56.4088 99.6765 56.6119 99.6473 56.771C99.6108 56.9509 99.5578 57.1271 99.4889 57.2972L99.4718 57.3437L99.5084 57.3731C99.7672 57.5735 100.052 57.7381 100.354 57.8626C100.776 58.0221 101.225 58.0961 101.675 58.0804C102.135 58.0881 102.592 58.0152 103.027 57.865C103.407 57.7327 103.753 57.5198 104.044 57.2409C104.319 56.9748 104.534 56.6526 104.675 56.2962C104.821 55.9306 104.896 55.5399 104.894 55.1458C104.908 54.7318 104.793 54.3237 104.565 53.9783V53.9783Z" fill="#5B6670"/>
</svg>
